<!DOCTYPE svg PUBLIC "-//W3C//DTD SVG 1.1//EN" "http://www.w3.org/Graphics/SVG/1.1/DTD/svg11.dtd">
<!-- Uploaded to: SVG Repo, www.svgrepo.com, Transformed by: SVG Repo Mixer Tools -->
<svg height="800px" width="800px" version="1.1" id="Layer_1" xmlns="http://www.w3.org/2000/svg" xmlns:xlink="http://www.w3.org/1999/xlink" viewBox="0 0 392.598 392.598" xml:space="preserve" fill="#000000">
<g id="SVGRepo_bgCarrier" stroke-width="0"/>
<g id="SVGRepo_tracerCarrier" stroke-linecap="round" stroke-linejoin="round"/>
<g id="SVGRepo_iconCarrier"> <path style="fill:#FFFFFF;" d="M152.331,271.127V160.194H124.21c-4.848,0-9.115-3.232-10.537-7.887 c-1.293-4.655,0.517-9.632,4.655-12.283l97.422-61.22V32.776c0-6.012-4.848-10.925-10.925-10.925H32.735 c-6.012,0-10.925,4.848-10.925,10.925v327.111c0,6.012,4.848,10.925,10.925,10.925h172.154c6.012,0,10.925-4.848,10.925-10.925 v-77.834h-52.622C157.18,282.053,152.331,277.139,152.331,271.127z"/> <path style="fill:#cebdff;" d="M161.964,138.279h1.164c6.012,0,10.925,4.848,10.925,10.925v110.933h157.608V149.269 c0-6.012,4.848-10.925,10.925-10.925h1.164l-90.764-57.212L161.964,138.279z"/> <g> <path style="fill:#6331a0;" d="M247.426,120.372v5.624h-1.616c-18.101,0-32.776,14.675-32.776,32.776s14.675,32.776,32.776,32.776 h14.222c6.012,0,10.925,4.848,10.925,10.925c0,6.012-4.848,10.925-10.925,10.925h-36.008c-6.012,0-10.925,4.848-10.925,10.925 c0,6.012,4.848,10.925,10.925,10.925h23.467v5.689c0,6.012,4.848,10.925,10.925,10.925c6.012,0,10.925-4.848,10.925-10.925v-7.111 c13.511-4.008,23.467-16.549,23.467-31.354c0-18.101-14.675-32.776-32.776-32.776H245.81c-6.012,0-10.925-4.848-10.925-10.925 c0-6.012,4.848-10.925,10.925-10.925h36.008c6.012,0,10.925-4.848,10.925-10.925c0-6.012-4.848-10.925-10.925-10.925h-12.606 v-5.624c0-6.012-4.849-10.925-10.925-10.925C252.34,109.576,247.426,114.36,247.426,120.372z"/> <path style="fill:#6331a0;" d="M126.602,331.572h-15.451c-6.012,0-10.925,4.849-10.925,10.925c0,6.012,4.848,10.925,10.925,10.925 h15.451c6.012,0,10.925-4.848,10.925-10.925C137.463,336.42,132.614,331.572,126.602,331.572z"/> <path style="fill:#6331a0;" d="M148.388,50.23c0-6.012-4.848-10.925-10.925-10.925h-37.301c-6.012,0-10.925,4.848-10.925,10.925 c0,6.012,4.848,10.925,10.925,10.925h37.301C143.54,61.091,148.388,56.242,148.388,50.23z"/> <path style="fill:#6331a0;" d="M387.451,140.024L258.74,59.087c-3.556-2.263-8.016-2.263-11.572,0l-9.503,5.947V32.711 C237.665,14.675,222.99,0,204.954,0H32.735C14.699,0,0.024,14.675,0.024,32.711v327.111c0,18.101,14.675,32.776,32.711,32.776 h172.154c18.036,0,32.711-14.675,32.711-32.711v-77.834h104.986c6.012,0,10.925-4.848,10.925-10.925V160.194h28.121 c4.848,0,9.115-3.232,10.537-7.887C393.463,147.588,391.588,142.61,387.451,140.024z M215.814,359.822 c0,6.012-4.848,10.925-10.925,10.925H32.735c-6.012,0-10.925-4.848-10.925-10.925V32.776c0-6.012,4.848-10.925,10.925-10.925 h172.154c6.012,0,10.925,4.848,10.925,10.925v45.964l-97.422,61.22c-4.073,2.521-6.012,7.564-4.655,12.283 c1.293,4.655,5.624,7.887,10.537,7.887h28.057v110.933c0,6.012,4.848,10.925,10.925,10.925h52.622v77.834H215.814z M342.651,138.279c-6.012,0-10.925,4.848-10.925,10.925v110.933H174.117V149.269c0-6.012-4.848-10.925-10.925-10.925h-1.164 l90.893-57.212l90.893,57.083h-1.164V138.279z"/> </g> <path style="fill:#5b8ee1;" d="M118.392,140.024l75.636-47.515V80.485H43.596v121.6h40.275c6.012,0,10.925,4.848,10.925,10.925 c0,6.077-4.848,10.925-10.925,10.925H43.596v29.156h20.945c6.012,0,10.925,4.848,10.925,10.925c0,6.012-4.848,10.925-10.925,10.925 H43.596v37.172h150.368v-29.931h-30.836c-6.012,0-10.925-4.849-10.925-10.925V160.194h-28.121c-4.848,0-9.115-3.232-10.537-7.887 C112.38,147.588,114.255,142.61,118.392,140.024z"/> </g>
</svg>